# xmcd CD database file
#
# Track frame offsets:
#	150
#	9413
#	21593
#	38542
#	58184
#	70327
#	86226
#	98982
#	109576
#	125337
#	135211
#	155588
#	169288
#
# Disc length: 2424 seconds
#
# Revision: 0
# Processed by: cddbd v1.4b42PL1 Copyright (c) Steve Scherf et al.
# Submitted via: CDex 1.40Beta8
#
DISCID=aa09760d
DTITLE=Dead Livers - Greatest Misses
DYEAR=1990
DGENRE=Country
TTITLE0=Love To Have A Joint With Willie
TTITLE1=Smoke With Malcom
TTITLE2=Keep On Rolling
TTITLE3=Grandpa
TTITLE4=Ballad Of A Dead Liver
TTITLE5=Hard Doing Ken
TTITLE6=Mediterranean Moonlight
TTITLE7=Star Of The West
TTITLE8=Up and Down The Line
TTITLE9=Telegraph and Data Man
TTITLE10=Holy Mary
TTITLE11=Prarie Dog
TTITLE12=Stud Like Me
EXTD=YEAR: 1990 ID3G: 2
EXTT0=
EXTT1=
EXTT2=
EXTT3=
EXTT4=
EXTT5=
EXTT6=
EXTT7=
EXTT8=
EXTT9=
EXTT10=
EXTT11=
EXTT12=
PLAYORDER=
